<svg id="visual" viewBox="0 0 960 540" width="960" height="540" xmlns="http://www.w3.org/2000/svg" xmlns:xlink="http://www.w3.org/1999/xlink" version="1.1"><path d="M0 60L87 60L87 114L175 114L175 66L262 66L262 87L349 87L349 109L436 109L436 98L524 98L524 60L611 60L611 82L698 82L698 104L785 104L785 44L873 44L873 93L960 93L960 71L960 0L960 0L873 0L873 0L785 0L785 0L698 0L698 0L611 0L611 0L524 0L524 0L436 0L436 0L349 0L349 0L262 0L262 0L175 0L175 0L87 0L87 0L0 0Z" fill="#f5f5f5"></path><path d="M0 239L87 239L87 190L175 190L175 287L262 287L262 255L349 255L349 212L436 212L436 347L524 347L524 158L611 158L611 309L698 309L698 266L785 266L785 217L873 217L873 325L960 325L960 271L960 69L960 91L873 91L873 42L785 42L785 102L698 102L698 80L611 80L611 58L524 58L524 96L436 96L436 107L349 107L349 85L262 85L262 64L175 64L175 112L87 112L87 58L0 58Z" fill="#ececec"></path><path d="M0 298L87 298L87 239L175 239L175 341L262 341L262 330L349 330L349 266L436 266L436 379L524 379L524 190L611 190L611 374L698 374L698 352L785 352L785 309L873 309L873 363L960 363L960 341L960 269L960 323L873 323L873 215L785 215L785 264L698 264L698 307L611 307L611 156L524 156L524 345L436 345L436 210L349 210L349 253L262 253L262 285L175 285L175 188L87 188L87 237L0 237Z" fill="#e4e4e4"></path><path d="M0 428L87 428L87 422L175 422L175 455L262 455L262 482L349 482L349 455L436 455L436 482L524 482L524 455L611 455L611 460L698 460L698 422L785 422L785 422L873 422L873 482L960 482L960 476L960 339L960 361L873 361L873 307L785 307L785 350L698 350L698 372L611 372L611 188L524 188L524 377L436 377L436 264L349 264L349 328L262 328L262 339L175 339L175 237L87 237L87 296L0 296Z" fill="#dbdbdb"></path><path d="M0 541L87 541L87 541L175 541L175 541L262 541L262 541L349 541L349 541L436 541L436 541L524 541L524 541L611 541L611 541L698 541L698 541L785 541L785 541L873 541L873 541L960 541L960 541L960 474L960 480L873 480L873 420L785 420L785 420L698 420L698 458L611 458L611 453L524 453L524 480L436 480L436 453L349 453L349 480L262 480L262 453L175 453L175 420L87 420L87 426L0 426Z" fill="#d3d3d3"></path></svg>